<svg width="156" height="28" viewBox="0 0 156 28" fill="none" xmlns="http://www.w3.org/2000/svg">
<path d="M26.149 10.8162C24.9932 4.42902 19.3702 0.0178015 13.2101 0C13.2101 0 13.2048 0 13.2031 0C13.2013 0 13.1977 0 13.196 0C7.03766 0.0178015 1.4147 4.42902 0.258907 10.8162C-0.265808 13.7143 -0.0247226 16.5625 1.27466 19.2541C2.12909 21.0271 3.47101 22.3979 4.99375 23.5959C6.46508 24.7548 7.96123 25.8798 9.43965 27.028C9.78532 27.2968 10.1877 27.6778 10.5564 28C10.5671 25.7018 10.5493 20.7459 10.5493 20.7459C10.5493 20.7459 10.4306 20.2581 10.1984 20.146C7.34965 18.7664 5.78082 16.4771 5.76487 13.3102C5.74891 10.1415 7.29824 7.84157 10.131 6.42635C10.2551 6.36404 10.3668 6.32844 10.5529 6.25011C10.5529 6.25011 10.56 8.34891 10.5582 9.37606C10.5564 10.5723 10.5653 11.7686 10.5547 12.9648C10.5511 13.2141 10.6327 13.3511 10.8472 13.4722C11.574 13.8816 12.2937 14.3035 13.0063 14.7361C13.0772 14.7788 13.1392 14.7984 13.1995 14.8037V14.8073C13.1995 14.8073 13.2048 14.8073 13.2066 14.8073C13.2084 14.8073 13.2119 14.8073 13.2137 14.8073V14.8037C13.274 14.7984 13.336 14.7788 13.4069 14.7361C14.1195 14.3035 14.8392 13.8816 15.566 13.4722C15.7788 13.3511 15.8603 13.2123 15.8585 12.9648C15.8461 11.7686 15.8568 10.5723 15.855 9.37606C15.8532 8.35069 15.8603 6.25011 15.8603 6.25011C16.0464 6.32844 16.1581 6.36404 16.2822 6.42635C19.1132 7.83979 20.6643 10.1415 20.6483 13.3102C20.6324 16.4789 19.0636 18.7681 16.2148 20.146C15.9809 20.2581 15.8639 20.7459 15.8639 20.7459C15.8639 20.7459 15.8461 25.7018 15.8568 28C16.2237 27.6796 16.6279 27.2968 16.9736 27.0298C18.452 25.8816 19.9481 24.7548 21.4195 23.5977C22.9422 22.3996 24.2841 21.0289 25.1385 19.2559C26.4362 16.5643 26.679 13.7178 26.1543 10.818L26.149 10.8162Z" fill="#FF5A1F"/>
<path d="M145.617 5.18513H148.908C151.103 5.18513 152.587 5.26962 153.36 5.43861C154.141 5.6076 154.774 6.0411 155.26 6.7391C155.753 7.42975 156 8.53553 156 10.0564C156 11.4451 155.827 12.3782 155.481 12.8558C155.135 13.3334 154.454 13.6199 153.437 13.7154C154.358 13.9432 154.976 14.2481 155.293 14.6302C155.61 15.0122 155.805 15.3649 155.878 15.6882C155.959 16.0041 156 16.8821 156 18.3222V23.0282H151.681V17.0989C151.681 16.1437 151.604 15.5523 151.449 15.3245C151.302 15.0967 150.908 14.9829 150.267 14.9829V23.0282H145.617V5.18513ZM150.267 8.23796V12.2055C150.79 12.2055 151.154 12.1357 151.361 11.9961C151.574 11.8492 151.681 11.3826 151.681 10.5965V9.6156C151.681 9.04985 151.578 8.67881 151.372 8.50247C151.173 8.32613 150.805 8.23796 150.267 8.23796Z" fill="white"/>
<path d="M136.205 5.18513H143.96V8.75595H140.856V12.1394H143.761V15.5339H140.856V19.4574H144.269V23.0282H136.205V5.18513Z" fill="white"/>
<path d="M135.134 5.18513L132.472 13.2415L135.388 23.0282H130.583L128.705 15.3796V23.0282H124.054V5.18513H128.705V12.1174L130.771 5.18513H135.134Z" fill="white"/>
<path d="M122.387 12.9661H117.736V9.85814C117.736 8.95441 117.685 8.39233 117.582 8.17191C117.486 7.94414 117.269 7.83026 116.93 7.83026C116.547 7.83026 116.304 7.96619 116.201 8.23804C116.098 8.50989 116.046 9.09768 116.046 10.0014V18.2892C116.046 19.1562 116.098 19.722 116.201 19.9865C116.304 20.251 116.536 20.3833 116.897 20.3833C117.243 20.3833 117.468 20.251 117.571 19.9865C117.681 19.722 117.736 19.1011 117.736 18.1239V15.8867H122.387V16.581C122.387 18.4252 122.254 19.733 121.989 20.5045C121.731 21.276 121.153 21.9519 120.255 22.5324C119.364 23.1128 118.263 23.403 116.952 23.403C115.59 23.403 114.467 23.1569 113.583 22.6646C112.699 22.1723 112.114 21.4927 111.827 20.6257C111.54 19.7514 111.396 18.4399 111.396 16.6912V11.4782C111.396 10.1924 111.44 9.22994 111.529 8.59071C111.617 7.94415 111.878 7.32329 112.313 6.72815C112.755 6.13302 113.362 5.66646 114.135 5.32848C114.916 4.98315 115.811 4.81049 116.82 4.81049C118.189 4.81049 119.32 5.075 120.211 5.60401C121.102 6.13302 121.687 6.79428 121.967 7.5878C122.247 8.37397 122.387 9.60098 122.387 11.2688V12.9661Z" fill="white"/>
<path d="M108.071 5.18513L110.733 23.0282H105.972L105.74 19.8211H104.072L103.796 23.0282H98.9798L101.344 5.18513H108.071ZM105.607 16.6581C105.372 14.6375 105.136 12.1431 104.901 9.17475C104.429 12.5839 104.135 15.0784 104.017 16.6581H105.607Z" fill="white"/>
<path d="M87.8455 5.18513H91.1372C93.3317 5.18513 94.8156 5.26962 95.5888 5.43861C96.3694 5.6076 97.0027 6.0411 97.4887 6.7391C97.9821 7.42975 98.2288 8.53553 98.2288 10.0564C98.2288 11.4451 98.0558 12.3782 97.7097 12.8558C97.3636 13.3334 96.6824 13.6199 95.6661 13.7154C96.5867 13.9432 97.2052 14.2481 97.5219 14.6302C97.8385 15.0122 98.0337 15.3649 98.1073 15.6882C98.1883 16.0041 98.2288 16.8821 98.2288 18.3222V23.0282H93.9098V17.0989C93.9098 16.1437 93.8325 15.5523 93.6778 15.3245C93.5306 15.0967 93.1366 14.9829 92.4959 14.9829V23.0282H87.8455V5.18513ZM92.4959 8.23796V12.2055C93.0188 12.2055 93.3833 12.1357 93.5895 11.9961C93.803 11.8492 93.9098 11.3826 93.9098 10.5965V9.6156C93.9098 9.04985 93.8067 8.67881 93.6005 8.50247C93.4017 8.32613 93.0335 8.23796 92.4959 8.23796Z" fill="white"/>
<path d="M86.7854 5.18513V8.75595H84.0239V23.0282H79.3734V8.75595H76.623V5.18513H86.7854Z" fill="white"/>
<path d="M73.4525 5.18513V19.4574H76.2803V23.0282H68.8021V5.18513H73.4525Z" fill="white"/>
<path d="M67.0567 15.6332C67.0567 17.4259 67.0125 18.697 66.9241 19.4465C66.8431 20.1885 66.578 20.8682 66.1288 21.4854C65.6869 22.1025 65.0868 22.5764 64.3283 22.9071C63.5698 23.2377 62.6861 23.403 61.6772 23.403C60.7199 23.403 59.8583 23.2487 59.0924 22.9401C58.3339 22.6242 57.7227 22.154 57.2588 21.5294C56.7948 20.9049 56.5187 20.2253 56.4303 19.4905C56.3419 18.7558 56.2977 17.47 56.2977 15.6332V12.5803C56.2977 10.7876 56.3382 9.52016 56.4192 8.77807C56.5076 8.02864 56.7727 7.34533 57.2146 6.72815C57.6638 6.11097 58.2676 5.63707 59.0261 5.30644C59.7846 4.97581 60.6683 4.81049 61.6772 4.81049C62.6345 4.81049 63.4924 4.96846 64.2509 5.28439C65.0168 5.59298 65.6317 6.05954 66.0956 6.68407C66.5596 7.3086 66.8357 7.98823 66.9241 8.72297C67.0125 9.4577 67.0567 10.7435 67.0567 12.5803V15.6332ZM62.4062 9.76997C62.4062 8.93971 62.3584 8.4107 62.2626 8.18293C62.1743 7.94782 61.9865 7.83026 61.6993 7.83026C61.4563 7.83026 61.2685 7.92578 61.1359 8.11681C61.0107 8.30049 60.9482 8.85155 60.9482 9.76997V18.1019C60.9482 19.1379 60.9887 19.7771 61.0697 20.0196C61.158 20.262 61.3569 20.3833 61.6661 20.3833C61.9828 20.3833 62.1853 20.2437 62.2737 19.9644C62.3621 19.6852 62.4062 19.0203 62.4062 17.9696V9.76997Z" fill="white"/>
<path d="M54.685 15.6332C54.685 17.4259 54.6408 18.697 54.5525 19.4465C54.4714 20.1885 54.2063 20.8682 53.7571 21.4854C53.3153 22.1025 52.7151 22.5764 51.9566 22.9071C51.1981 23.2377 50.3144 23.403 49.3056 23.403C48.3482 23.403 47.4866 23.2487 46.7208 22.9401C45.9623 22.6242 45.351 22.154 44.8871 21.5294C44.4232 20.9049 44.147 20.2253 44.0587 19.4905C43.9703 18.7558 43.9261 17.47 43.9261 15.6332V12.5803C43.9261 10.7876 43.9666 9.52016 44.0476 8.77807C44.136 8.02864 44.4011 7.34533 44.8429 6.72815C45.2921 6.11097 45.896 5.63707 46.6545 5.30644C47.413 4.97581 48.2967 4.81049 49.3056 4.81049C50.2629 4.81049 51.1208 4.96846 51.8793 5.28439C52.6452 5.59298 53.2601 6.05954 53.724 6.68407C54.1879 7.3086 54.4641 7.98823 54.5525 8.72297C54.6408 9.4577 54.685 10.7435 54.685 12.5803V15.6332ZM50.0346 9.76997C50.0346 8.93971 49.9867 8.4107 49.891 8.18293C49.8026 7.94782 49.6148 7.83026 49.3276 7.83026C49.0846 7.83026 48.8968 7.92578 48.7643 8.11681C48.6391 8.30049 48.5765 8.85155 48.5765 9.76997V18.1019C48.5765 19.1379 48.617 19.7771 48.698 20.0196C48.7864 20.262 48.9852 20.3833 49.2945 20.3833C49.6112 20.3833 49.8137 20.2437 49.902 19.9644C49.9904 19.6852 50.0346 19.0203 50.0346 17.9696V9.76997Z" fill="white"/>
<path d="M42.9983 5.18513V8.75595H40.2368V23.0282H35.5864V8.75595H32.8359V5.18513H42.9983Z" fill="white"/>
</svg>
